<svg width="25" height="24" viewBox="0 0 25 24" fill="none" xmlns="http://www.w3.org/2000/svg">
<path d="M9.81186 9.83406L8.34186 14.7341C8.28887 14.9108 8.27793 15.0975 8.30992 15.2793C8.34191 15.4611 8.41594 15.6328 8.52611 15.7809C8.63627 15.9289 8.77952 16.0492 8.94443 16.132C9.10933 16.2149 9.29131 16.258 9.47586 16.2581C9.59104 16.2582 9.70561 16.2414 9.81586 16.2081L14.7159 14.7381C14.905 14.6814 15.0769 14.5783 15.2159 14.4381L24.2059 5.44806C24.4278 5.22603 24.5524 4.92497 24.5524 4.61106C24.5524 4.29715 24.4278 3.99609 24.2059 3.77406L20.7729 0.347059C20.5508 0.125148 20.2498 0.000488281 19.9359 0.000488281C19.6219 0.000488281 19.3209 0.125148 19.0989 0.347059L10.1089 9.33706C9.97032 9.47565 9.86828 9.6464 9.81186 9.83406ZM11.9939 10.8001L19.9359 2.85806L21.6939 4.61706L13.7539 12.5591L11.2419 13.3121L11.9939 10.8001Z" fill="white"/>
<path d="M23.393 10.839C23.2404 10.8389 23.0893 10.8688 22.9484 10.9271C22.8074 10.9854 22.6793 11.0709 22.5714 11.1787C22.4634 11.2865 22.3778 11.4145 22.3194 11.5555C22.261 11.6964 22.231 11.8475 22.231 12V19.742C22.2302 20.255 22.026 20.7467 21.6633 21.1094C21.3006 21.4721 20.8089 21.6762 20.296 21.677H4.81195C4.299 21.6762 3.80729 21.4721 3.44458 21.1094C3.08187 20.7467 2.87775 20.255 2.87696 19.742V4.258C2.87775 3.74505 3.08187 3.25334 3.44458 2.89062C3.80729 2.52791 4.299 2.32379 4.81195 2.323H12.554C12.862 2.323 13.1574 2.20063 13.3753 1.9828C13.5931 1.76498 13.7155 1.46955 13.7155 1.1615C13.7155 0.853451 13.5931 0.558019 13.3753 0.340195C13.1574 0.122372 12.862 0 12.554 0H4.81195C3.68307 0.00132328 2.6008 0.450358 1.80256 1.2486C1.00431 2.04684 0.555278 3.12911 0.553955 4.258V19.742C0.555278 20.8709 1.00431 21.9532 1.80256 22.7514C2.6008 23.5496 3.68307 23.9987 4.81195 24H20.296C21.4248 23.9987 22.5071 23.5496 23.3054 22.7514C24.1036 21.9532 24.5526 20.8709 24.554 19.742V12C24.554 11.6921 24.4316 11.3968 24.2139 11.179C23.9962 10.9613 23.7009 10.839 23.393 10.839Z" fill="white"/>
</svg>
