<svg width="20" height="20" viewBox="0 0 20 20" fill="none" xmlns="http://www.w3.org/2000/svg">
<path d="M13.6116 1.66663C16.436 1.66663 18.3334 3.64839 18.3334 6.59723V13.4027C18.3334 16.3515 16.436 18.3333 13.6108 18.3333H6.38857C3.56416 18.3333 1.66675 16.3515 1.66675 13.4027V6.59723C1.66675 3.64839 3.56416 1.66663 6.38857 1.66663H13.6116ZM14.5306 10.4583C13.6373 9.90106 12.9476 10.6837 12.7616 10.9339C12.5823 11.1756 12.4281 11.4422 12.2655 11.7088C11.8683 12.3667 11.4133 13.1252 10.6256 13.5663C9.4809 14.2002 8.61192 13.6162 7.98678 13.1914C7.75215 13.0332 7.52422 12.8835 7.29713 12.7838C6.73735 12.5421 6.23373 12.8173 5.48625 13.7667C5.09407 14.2629 4.70525 14.7549 4.3114 15.2451C4.07593 15.5383 4.13207 15.9907 4.44967 16.1867C4.95665 16.4989 5.57508 16.6666 6.27395 16.6666H13.2971C13.6934 16.6666 14.0906 16.6124 14.4694 16.4886C15.3225 16.21 15.9996 15.5719 16.3532 14.7291C16.6515 14.0204 16.7965 13.1604 16.5174 12.4449C16.4244 12.2076 16.2853 11.9865 16.0901 11.7922C15.578 11.2839 15.0996 10.8092 14.5306 10.4583ZM7.08246 4.99996C5.93359 4.99996 5.00008 5.93473 5.00008 7.08329C5.00008 8.23185 5.93359 9.16662 7.08246 9.16662C8.2305 9.16662 9.16484 8.23185 9.16484 7.08329C9.16484 5.93473 8.2305 4.99996 7.08246 4.99996Z" fill="#98A1AE"/>
</svg>
