<svg width="28" height="24" viewBox="0 0 28 24" fill="none" xmlns="http://www.w3.org/2000/svg">
<path d="M19.4519 24.004H8.50492C8.06257 24.003 7.62821 23.886 7.24517 23.6648C6.86213 23.4435 6.5438 23.1257 6.32192 22.743L0.847921 13.262C0.627331 12.8787 0.51123 12.4442 0.51123 12.002C0.51123 11.5598 0.627331 11.1253 0.847921 10.742L6.32192 1.261C6.54372 0.878247 6.86204 0.560368 7.24509 0.339096C7.62815 0.117825 8.06255 0.000902035 8.50492 0H19.4519C19.894 0.00097504 20.3282 0.11783 20.711 0.338912C21.0939 0.559994 21.4121 0.877579 21.6339 1.26L27.1079 10.741C27.3285 11.1243 27.4446 11.5588 27.4446 12.001C27.4446 12.4432 27.3285 12.8777 27.1079 13.261L21.6339 22.743C21.412 23.1258 21.0935 23.4438 20.7102 23.665C20.327 23.8863 19.8924 24.0032 19.4499 24.004H19.4519ZM8.50492 1.949C8.40554 1.94933 8.30798 1.97574 8.222 2.02557C8.13602 2.07541 8.06461 2.14693 8.01492 2.233L2.54092 11.713C2.49116 11.7992 2.46496 11.897 2.46496 11.9965C2.46496 12.096 2.49116 12.1938 2.54092 12.28L8.01492 21.759C8.06461 21.8451 8.13602 21.9166 8.222 21.9664C8.30798 22.0163 8.40554 22.0427 8.50492 22.043H19.4519C19.5517 22.0429 19.6498 22.0165 19.7361 21.9665C19.8225 21.9165 19.8942 21.8445 19.9439 21.758L25.4179 12.279C25.4677 12.1928 25.4939 12.095 25.4939 11.9955C25.4939 11.896 25.4677 11.7982 25.4179 11.712L19.9439 2.237C19.8942 2.15072 19.8227 2.07904 19.7365 2.02919C19.6503 1.97933 19.5525 1.95306 19.4529 1.953L8.50492 1.949Z" fill="white"/>
<path d="M13.9789 16.976C12.9949 16.976 12.0331 16.6842 11.2149 16.1376C10.3968 15.5909 9.75915 14.8139 9.38261 13.9049C9.00606 12.9958 8.90754 11.9955 9.0995 11.0304C9.29146 10.0654 9.76529 9.17891 10.4611 8.48315C11.1568 7.78738 12.0433 7.31356 13.0083 7.1216C13.9734 6.92964 14.9737 7.02816 15.8828 7.4047C16.7918 7.78125 17.5688 8.41891 18.1155 9.23704C18.6621 10.0552 18.9539 11.017 18.9539 12.001C18.9539 12.6543 18.8252 13.3013 18.5752 13.9049C18.3252 14.5084 17.9587 15.0569 17.4968 15.5189C17.0348 15.9808 16.4864 16.3473 15.8828 16.5973C15.2792 16.8473 14.6322 16.976 13.9789 16.976ZM13.9789 8.981C13.3816 8.981 12.7977 9.15812 12.3011 9.48996C11.8045 9.82181 11.4174 10.2935 11.1888 10.8453C10.9602 11.3971 10.9004 12.0044 11.0169 12.5902C11.1335 13.176 11.4211 13.7141 11.8434 14.1365C12.2658 14.5588 12.8039 14.8464 13.3897 14.963C13.9756 15.0795 14.5828 15.0197 15.1346 14.7911C15.6864 14.5625 16.1581 14.1755 16.4899 13.6788C16.8218 13.1822 16.9989 12.5983 16.9989 12.001C16.9986 11.2002 16.6803 10.4323 16.114 9.86619C15.5477 9.30004 14.7797 8.982 13.9789 8.982V8.981Z" fill="white"/>
</svg>
